<svg xmlns="http://www.w3.org/2000/svg" viewBox="0 0 2200 2200"><defs><style>.cls-1{fill:#00933b}.cls-3{fill:#5278e2}</style></defs><g id="Objects"><path d="M1459.83 1364c49.64-75.04 80.18-167.82 90.76-275.77 7.59-77.48 4.55-154.57.13-226.34-2.84-46.21-34.94-84.83-79.86-96.12-178.97-44.95-268.44-100.51-305.85-129.62-38.28-29.8-91.75-29.8-130.04 0-37.4 29.12-126.88 84.67-305.85 129.62-44.93 11.28-77.02 49.91-79.86 96.11-4.42 71.77-7.46 148.86.13 226.34 10.58 107.95 41.12 200.73 90.76 275.77 33.2 50.19 79.64 98.42 138.04 143.36 49.72 38.26 108.45 74.45 174.56 107.55 14.79 7.4 31.01 11.11 47.23 11.11s32.44-3.7 47.23-11.11c66.11-33.11 124.85-69.29 174.56-107.55 58.4-44.94 104.84-93.17 138.04-143.36Zm-180.72 87.88c-46.18 35.54-101.09 69.33-163.22 100.44-9.95 4.98-21.83 4.98-31.78 0-62.12-31.11-117.04-64.9-163.22-100.44-52.26-40.21-93.42-82.77-122.35-126.5-43.28-65.42-70.02-147.5-79.48-243.97-7.11-72.6-4.17-146.34.07-215.22.96-15.63 11.83-28.7 27.05-32.52 82.16-20.64 234.52-66.56 331.79-142.27 6.48-5.05 14.25-7.57 22.02-7.57s15.54 2.52 22.02 7.57c97.27 75.71 249.63 121.64 331.79 142.27 15.22 3.82 26.09 16.89 27.05 32.52 4.24 68.88 7.18 142.62.07 215.21-9.46 96.47-36.2 178.56-79.48 243.98-28.92 43.73-70.09 86.29-122.34 126.5Z" class="cls-1"/><path d="M1100 949.37c-54 0-97.77 43.77-97.77 97.77 0 36.76 20.28 68.78 50.28 85.47l-15.65 128.99c-1.97 16.23 10.7 30.54 27.05 30.54h72.19c16.35 0 29.02-14.31 27.05-30.54l-15.65-128.99c29.99-16.7 50.28-48.71 50.28-85.47 0-54-43.77-97.77-97.77-97.77Z" class="cls-1"/><path d="M1075 379.33v217.02c8.2-1.68 16.58-2.54 25-2.54s16.8.86 25 2.54V379.92c27.92-9.95 47.92-36.61 47.92-67.95 0-39.83-32.29-72.13-72.13-72.13s-72.13 32.29-72.13 72.13c0 30.74 19.24 56.98 46.33 67.36ZM1899.15 1004.57c-30.74 0-56.98 19.24-67.36 46.33h-258.28c-.72 12.73-1.67 25.5-2.91 38.3l-.1.98c-.35 3.59-.73 7.16-1.12 10.72h261.82c9.95 27.93 36.61 47.92 67.95 47.92 39.83 0 72.13-32.29 72.13-72.13s-32.29-72.13-72.13-72.13ZM1839.94 735.26v78.95c0 8.27-6.73 15-15 15h-260.22c3.26 10.01 5.3 20.55 5.97 31.45.38 6.14.75 12.33 1.1 18.55h253.15c35.84 0 65-29.16 65-65v-78.94c27.51-10.17 47.13-36.63 47.13-67.67 0-39.83-32.29-72.13-72.13-72.13s-72.13 32.29-72.13 72.13c0 31.04 19.61 57.5 47.12 67.67ZM1376.16 717.52v-221.3c0-8.27 6.72-15 14.99-15h218.5c10.17 27.51 36.63 47.13 67.67 47.13 39.83 0 72.13-32.29 72.13-72.13 0-39.83-32.29-72.13-72.13-72.13-31.04 0-57.5 19.61-67.67 47.12h-218.5c-35.84 0-65 29.16-65 65v203.28c15.4 5.99 32.03 12.03 50.01 18.02ZM1125 1820.08V1643.5c-8.21 1.66-16.6 2.52-25 2.52s-16.79-.86-25-2.52v177.17c-27.09 10.38-46.33 36.61-46.33 67.36 0 39.83 32.29 72.13 72.13 72.13s72.13-32.29 72.13-72.13c0-31.34-19.99-58-47.92-67.95ZM1889.94 1418.13v-78.94c0-35.84-29.16-65-65-65H1528.3c-6.71 17.28-14.13 33.95-22.27 50h318.91c8.27 0 15 6.73 15 15v78.95c-27.51 10.17-47.12 36.63-47.12 67.67 0 39.83 32.29 72.13 72.13 72.13s72.13-32.29 72.13-72.13c0-31.05-19.62-57.51-47.13-67.67ZM1677.32 1625.04c-31.05 0-57.5 19.62-67.67 47.13h-218.5c-8.27 0-15-6.73-15-15V1488.4c-13.3 11.81-27.36 23.41-42.16 34.8-2.59 1.99-5.2 3.97-7.83 5.95v128.02c0 35.84 29.15 65 64.99 65h218.5c10.17 27.51 36.63 47.12 67.67 47.12 39.83 0 72.13-32.29 72.13-72.13 0-39.83-32.29-72.13-72.13-72.13ZM368.8 1100.9h261.82c-.39-3.56-.77-7.13-1.12-10.72a953 953 0 0 1-3-39.28H368.21c-10.38-27.09-36.61-46.33-67.36-46.33-39.83 0-72.13 32.29-72.13 72.13s32.29 72.13 72.13 72.13c31.34 0 58-20 67.95-47.92ZM310.06 735.27v78.94c0 35.84 29.16 65 65 65h253.15c.35-6.22.72-12.4 1.1-18.55.67-10.9 2.71-21.44 5.97-31.45H375.06c-8.27 0-15-6.73-15-15v-78.95c27.51-10.17 47.12-36.63 47.12-67.67 0-39.83-32.29-72.13-72.13-72.13s-72.13 32.29-72.13 72.13c0 31.05 19.62 57.51 47.13 67.67ZM522.68 528.35c31.05 0 57.5-19.62 67.67-47.13h218.5c8.27 0 15 6.73 15 15v221.3c17.97-5.99 34.6-12.03 49.99-18.02V496.22c0-35.84-29.15-65-64.99-65h-218.5c-10.17-27.51-36.63-47.12-67.67-47.12-39.83 0-72.13 32.29-72.13 72.13 0 39.83 32.29 72.13 72.13 72.13ZM360.06 1418.13v-78.95c0-8.27 6.73-15 15-15h318.91c-8.14-16.05-15.56-32.72-22.27-50H375.06c-35.84 0-65 29.16-65 65v78.95c-27.51 10.17-47.13 36.63-47.13 67.67 0 39.83 32.29 72.13 72.13 72.13s72.13-32.29 72.13-72.13c0-31.04-19.61-57.5-47.12-67.67ZM866.01 1523.2c-14.8-11.39-28.86-22.99-42.17-34.8v168.77c0 8.27-6.72 15-14.99 15h-218.5c-10.17-27.51-36.63-47.13-67.67-47.13-39.83 0-72.13 32.29-72.13 72.13 0 39.83 32.29 72.13 72.13 72.13 31.04 0 57.5-19.61 67.67-47.12h218.5c35.84 0 65-29.16 65-65v-128.02c-2.64-1.98-5.25-3.96-7.84-5.95Z" class="cls-3"/></g></svg>
